<?xml version="1.0" encoding="utf-8"?>
<!-- Generator: Adobe Illustrator 21.1.0, SVG Export Plug-In . SVG Version: 6.00 Build 0)  -->
<svg version="1.1" id="Layer_1" xmlns="http://www.w3.org/2000/svg" xmlns:xlink="http://www.w3.org/1999/xlink" x="0px" y="0px"
	 viewBox="0 0 729 1370" style="enable-background:new 0 0 729 1370;" xml:space="preserve">
<style type="text/css">
	.st0{fill:none;stroke:#C96363;}
	.st1{fill:#C96363;}
	.st2{fill-rule:evenodd;clip-rule:evenodd;fill:none;stroke:#C96363;}
	.st3{display:none;fill-rule:evenodd;clip-rule:evenodd;fill:none;stroke:#C96363;}
	svg#Layer_1 {background: gainsboro;}
</style>
<g>
	<defs>
		<rect id="SVGID_1_" x="2.3" y="-0.5" width="751.5" height="1370.5"/>
	</defs>
	<clipPath id="SVGID_2_">
		<use xlink:href="#SVGID_1_"  style="overflow:visible;"/>
	</clipPath>
	<g style="clip-path:url(#SVGID_2_);">
		
			
	</g>
</g>
<g id="_x33_62502000">
	<g>
		<path class="st0" d="M355,95.2c0,4-6.4,7.2-14.3,7.2s-14.3-3.2-14.3-7.2c0-4,6.4-7.2,14.3-7.2S355,91.2,355,95.2z"/>
	</g>
</g>
<g id="_x33_62503005">
	<g>
		<path class="st0" d="M407,95.2c0,4-6.4,7.2-14.3,7.2c-7.9,0-14.3-3.2-14.3-7.2c0-4,6.4-7.2,14.3-7.2C400.6,88,407,91.2,407,95.2z"
			/>
	</g>
</g>
<path id="_x33_62632004" class="st0" d="M390.3,166.8c0,6.1-10.4,11-23.3,11s-23.3-4.9-23.3-11s10.4-11,23.3-11
	S390.3,160.7,390.3,166.8z"/>
<g id="_x33_02549007">
	<path class="st1" d="M365.7,189.5c-22.5,0-39.1-11-44.5-29.4c-5.4-18.6-10.4-36.9-11.8-56.1c-1.8-26.3,1.5-42.8,11.7-58.6
		c10.8-16.6,27.8-26.9,44.5-26.9c19.4,0,38.7,13.5,49.4,34.3c6.2,12.1,6,27,5.8,42.7c0,2.8-0.1,5.6-0.1,8.5c0,20.6-6.3,40.9-10.1,53
		C404.3,176.4,386.2,189.5,365.7,189.5z M365.7,19.5c-16.3,0-33.1,10.1-43.6,26.4c-10.2,15.7-13.4,31.9-11.6,58
		c1.3,19.1,6.3,37.3,11.7,55.9c5.2,17.9,21.5,28.6,43.5,28.6c20,0,37.8-12.8,44.1-31.8c3.7-12.1,10-32.3,10-52.7
		c0-2.9,0-5.7,0.1-8.5c0.2-15.6,0.4-30.4-5.7-42.3C403.8,32.7,384.7,19.5,365.7,19.5z"/>
</g>
<path id="_x38_1083006" class="st0" d="M344.8,143.1c0,0,3.4-5.2,9.7-6.8c0.4-0.1,0.7-0.3,0.9-0.5c1.1-1.2,4.7-4.6,10.7-1.8
	c1.3,0.6,5.6-4.2,11.6,2c3.5,2.1,4.9,1.1,9.6,7.2c0,0-10.7,7.4-21.3,7.3C358.9,150.4,351.8,149.2,344.8,143.1z"/>
<path id="_x33_68592000" class="st0" d="M429.7,126.3c-1.4,10.4-6.8,19.2-11.6,19.2c-4.5,0-2.3-8.8,0.2-19.4c2.5-11,2-19.9,7.5-20
	C430.9,106,431.3,115,429.7,126.3z"/>
<path id="_x33_68570004" class="st0" d="M300.9,125.8c1.4,10.4,7.6,19.1,12.4,19.1c4.5,0,2.3-8.8-0.2-19.4c-2.5-11-2-19.9-7.5-20
	C300.5,105.5,299.4,114.6,300.9,125.8z"/>
<path id="_x33_62614004" class="st0" d="M415.6,77.3c0,8.6-27.1-10.4-48.6-10.3s-51.1,19.3-51.1,10.8c0-9.1,4.3-24.1,14.9-35.3
	c4.6,1.6,9.7,3.2,15.1,4.1c0.2,0,0.3,0,0.5,0.1c9.5,1.2,33.6,1,38.1,0.7c0.5,0,1-0.1,1.6-0.2c2.5-0.6,10.6-2.4,16-4.2
	C411.8,53.9,415.6,68.4,415.6,77.3z"/>
<path id="_x33_02548004" class="st0" d="M366.4,47.6c-21.4,0.2-21.8-1.2-35.6-5.1c9.2-9.8,23.7-18.8,35-18.8c11.8,0,27,9,36.3,19.3
	C383.6,48.4,387.8,47.4,366.4,47.6z"/>
<path id="_x31_82325008_1_" class="st0" d="M414.7,126.5c-3.5,14.2-10.9,37.8-14,30.3c-6.6-15.7-18.5-17.9-18.5-32.5
	s8.1-20.3,19.7-19C410.5,106.3,418.8,109.9,414.7,126.5z"/>
<path id="_x31_82325008" class="st0" d="M317,126.5c3.5,14.2,10.9,37.8,14,30.3c6.6-15.7,18.5-17.9,18.5-32.5s-8.1-20.3-19.7-19
	C321.2,106.3,312.9,109.9,317,126.5z"/>
<path id="_x31_81195007" class="st0" d="M366,82.9c0,0-5-0.9-5.7,5.1c0,4.7,0.2,14.2-2.3,18s-7,10.2-4,14.7c1.8,2.3,5,5.3,12.3,4.5
	c6-0.3,8.7,0.5,11.9-5c3.1-5.4-1.8-10.2-3-14.2c-2-5-4.2-15.1-4.2-18.1C370.7,84.6,368.1,82.5,366,82.9z"/>
<path id="_x34_14109003" class="st0" d="M319.2,151.3l1.3,6.6l0.1,47.6c0,0-6.5,12.8-28.7,20c-6.7,3-22.8,7.8-22.7,8.5
	c0.1,0.7,80.2,12.3,80.2,12.3s7,10.5,16.5,9.3c6.8-0.9,13.8-4.9,16.9-9.3c0.4-0.6,1.1-0.9,1.8-0.9c12.5,0.3,50,3.5,74-11.8
	c0,0-23.9-8.8-28.2-10.8c-5-3-18.5-7.8-22.8-16.8c0.3-10.8,1.6-46.6,1.6-46.6s-4.7,11.9-13.6,18.7c-6.7,4.7-16,11.4-30.1,10.9
	c-10.4-0.9-20.3,0-34.7-12.9C326.6,169.8,324.8,169.8,319.2,151.3z"/>
<path id="_xA0_368107006" class="st0" d="M269.3,234c0,0-48.8-3.5-76.8,41.5c-5.5,10.5-11.2,23.5-9.8,72.8
	c7.7,1.3,56.3-33.7,60-44.3c1.7-10.3,23.3-65.7,49.8-66.2C275.1,235.1,269.3,234,269.3,234z"/>
<path id="_x33_68106002" class="st0" d="M458.8,233.5c0,0,50.6-3,78.6,42c5.5,10.5,10,23.3,9.8,72.8c-7.7,1.3-56.3-33.7-60-44.3
	c-1.7-10.3-20.4-62.1-46.9-62.6C450,238,458.8,233.5,458.8,233.5z"/>
<path id="_x33_62729008" class="st0" d="M182.7,348.3c0,0-19.9,29.7-28.2,71.7c-1.3,7.3,19.8,41,55.8,31
	c9.8-17.8,28.8-57.3,28.8-57.3l2.4-87.4c0,0-15,18.5-40.2,33.2C195.7,342.8,191.6,346.1,182.7,348.3z"/>
<path id="_x31_927002" class="st0" d="M154.5,420c0,0-19.5,30.8-25.5,49.8c17.5,5,46,2,71.5,27.8c1.8-6.3,5.8-14.8,6.5-27.3
	c2.3-12.5,3.3-17.5,3.8-19.3c0.4-1.6-30.4,12.1-52.5-20.7C156.3,427.5,154.8,424.1,154.5,420z"/>
<path id="_x33_68225008" class="st0" d="M129,469.8c0,0-11.3,23.6-17.3,60.9c0,0-8.3,39.3-17,56C103,598,109.5,606,135,606
	c0,0,24-39.7,30.3-44.7c6-8.3,28.9-39.2,35.2-63.8c-6.3-5.7-19.3-18.1-38.6-21.6C148.2,473.2,130.8,470.1,129,469.8z"/>
<path id="_x33_68236001" class="st0" d="M135,606c0,0-10.1,23.1-10.6,24c-8.6-8.5-32.1-23.6-39.8-21c5-12.5,10-22.3,10-22.3
	s6.8,10.3,16.2,15.2C117.9,606,135,606,135,606z"/>
<path id="_x37_34143007" class="st0" d="M84.6,609c0,0-2.6,4.3-12.1,6.3c-8,4-28.8,13-36.5,22.3c-6,3.8-17.9,13.3-19.2,16.8
	c-0.4,2.7,1,8.3,10.5,7.2c5.5-2.4,15.7-11.5,16.9-11.8s6.9-3.1,11.1-1.9S82.8,638.8,84.6,609z"/>
<path id="Left_Fingers" class="st0" d="M47.2,671.5c0,0-14.5,48.3-13.3,59.8c1,4,1.4,4.8,4.8,6.2c3.3-0.1,5.8,0,8.5-7.4
	c0.8-6.7,3.9-18.5,5.1-21.6s8.3-25.6,9.2-26.4c0.8-0.8,5.2-1,4.2,2.9c-1.6,3.7-11.4,29.8-14.8,51.7c-0.8,5-3.2,14.3,2.2,17.2
	c3.2-1,7.5,1.8,10.7-14.2c3.3-13.5,11.8-45.3,13.3-48.3c1-1.4,3.5-3.3,4.3,1.5c0,0-9.3,30.4-10.3,41.2c-2.3,7.3-5.3,13.5-0.3,17.5
	c3,0.8,9.5-1.8,12.3-15.8c4.5-14.3,11.5-43.5,13.5-44.3c1-0.8,4.8-1.4,3.2,3.5c-1.8,4.9-8.5,21.8-10.7,33.6
	c0.4,4.6,3.8,12.4,8.6,4.5c3-8.4,14.9-40.6,15.2-42.6C112.8,690.5,86.3,697,47.2,671.5z"/>
<path id="Left_Palm" class="st0" d="M84.6,609c0,0-1.3,16.6-8.5,25c-6,7-10.6,12.2-20.5,14.4c-0.5,2.1-8.5,23.1-8.5,23.1
	s37.2,25.3,65.7,19c0,0,7.9-17.6,9.3-32.1c2.3-14.1,2.8-20.5,2.3-28.4C121,627,96.9,606.6,84.6,609z"/>
<path id="_x33_62728000" class="st0" d="M546.6,348.3c0,0,19.9,29.7,28.2,71.7c1.3,7.3-19.8,41-55.8,31
	c-9.8-17.8-28.8-57.3-28.8-57.3l-2.4-87.4c0,0,15,18.5,40.2,33.2C533.6,342.8,537.7,346.1,546.6,348.3z"/>
<path id="_xA0_71889004" class="st0" d="M574.7,420c0,0,19.5,30.8,25.5,49.8c-17.5,5-46,2-71.5,27.8c-1.8-6.3-5.8-14.8-6.5-27.3
	c-2.3-12.5-3.3-17.5-3.8-19.3c-0.4-1.6,30.4,12.1,52.5-20.7C572.9,427.5,574.4,424.1,574.7,420z"/>
<path id="_x33_68224007" class="st0" d="M600.2,469.8c0,0,11.3,23.6,17.3,60.9c0,0,8.3,39.3,17,56c-8.3,11.3-14.8,19.3-40.3,19.3
	c0,0-24-39.7-30.3-44.7c-6-8.3-28.9-39.2-35.2-63.8c6.3-5.7,19.3-18.1,38.6-21.6C581,473.2,598.5,470.1,600.2,469.8z"/>
<path id="_x33_68235002" class="st0" d="M594.2,606c0,0,10.1,23.1,10.6,24c8.6-8.5,32.1-23.6,39.8-21c-5-12.5-10-22.3-10-22.3
	s-6.8,10.3-16.2,15.2C611.4,606,594.2,606,594.2,606z"/>
<path id="_x37_34144001" class="st0" d="M644.6,609c0,0,2.6,4.3,12.1,6.3c8,4,28.8,13,36.5,22.3c6,3.8,17.9,13.3,19.2,16.8
	c0.4,2.7-1,8.3-10.5,7.2c-5.5-2.4-15.7-11.5-16.9-11.8s-6.9-3.1-11.1-1.9S646.5,638.8,644.6,609z"/>
<path id="Right_Fingers" class="st0" d="M682.1,671.5c0,0,14.5,48.3,13.3,59.8c-1,4-1.4,4.8-4.8,6.2c-3.3-0.1-5.8,0-8.5-7.4
	c-0.8-6.7-3.9-18.5-5.1-21.6c-1.2-3.1-8.3-25.6-9.2-26.4c-0.8-0.8-5.3-1-4.2,2.9c1.6,3.7,11.4,29.8,14.8,51.7
	c0.8,5,3.2,14.3-2.2,17.2c-3.2-1-7.5,1.8-10.7-14.2c-3.3-13.5-11.8-45.3-13.3-48.3c-1-1.4-3.5-3.3-4.3,1.5c0,0,9.3,30.4,10.3,41.2
	c2.3,7.3,5.3,13.5,0.3,17.5c-3,0.8-9.5-1.8-12.3-15.8c-4.5-14.3-11.5-43.5-13.5-44.3c-1-0.8-4.8-1.4-3.2,3.5
	c1.8,4.9,8.5,21.8,10.7,33.6c-0.4,4.6-3.8,12.4-8.6,4.5c-3-8.4-14.9-40.6-15.2-42.6C616.4,690.5,642.9,697,682.1,671.5z"/>
<path id="Right_Palm" class="st0" d="M644.6,609c0,0,1.3,16.6,8.5,25c6,7,10.6,12.2,20.5,14.4c0.5,2.1,8.5,23.1,8.5,23.1
	s-37.3,25.3-65.7,19c0,0-7.9-17.6-9.3-32.1c-2.3-14.1-2.8-20.5-2.3-28.4C608.2,627,632.4,606.6,644.6,609z"/>
<path id="_x33_61715005" class="st0" d="M364.5,310c0,37.7,26.8,67.5,60.4,67.5s62.8-33.6,62.8-71.3c-4.5-13.6-4.9-17.8-9.1-26.5
	c-6.4-13.4-15-26.9-26.1-34.5c-7.4-4.3-10-3.9-26.4-0.9c-15.7,2.2-23.7,1.6-42.2,1.1C364.7,264.3,364.5,285.4,364.5,310z"/>
<path id="_x33_61716006" class="st0" d="M364.5,310c0,37.7-27,68.3-60.3,68.3s-62.2-33.6-62.2-71.3c4.5-13.6,5.8-18.3,10-27
	c6.4-13.4,15-29.1,26.1-36.6c7.4-4.3,10.5-6.7,26.7-3.7c14.1,2.2,26.7,3.5,43.6,6.4C367.4,264.8,364.5,285.4,364.5,310z"/>
<path id="_x33_61716006_1_" class="st0" d="M339.3,357.8c0,11.3-15.7,20.5-35.2,20.5c-19.4,0-35.2-9.2-35.2-20.5
	s15.7-20.5,35.2-20.5C323.6,337.3,339.3,346.5,339.3,357.8z"/>
<path id="_x33_61715005_1_" class="st0" d="M461.4,356.8c0,11.3-15.7,20.5-35.2,20.5c-19.4,0-35.2-9.2-35.2-20.5
	s15.7-20.5,35.2-20.5C445.6,336.3,461.4,345.5,461.4,356.8z"/>
<path id="_x33_61288001" class="st0" d="M241.9,307c0,0,6.9-26.3,15.8-38.5c0.6,36.8,0,84.8,0,84.8S242.5,336.3,241.9,307z"/>
<path id="_x31_82245002" class="st0" d="M488.2,306.8c0,0-8.4-29.2-17.3-41.3c-0.6,36.8,0,87.8,0,87.8S487.6,336.1,488.2,306.8z"/>
<path id="_x33_02553009" class="st0" d="M464.3,467.7c0,56.5-44.5,102.3-99.3,102.3s-99.3-45.8-99.3-102.3c0-27-24.3-76.4-7.7-94.7
	c9.5-10.4,24.7,5.1,46.2,5.2c19.8,0.1,46.8-12.8,60.5-14.1c16.3-1.5,37.6,13.1,61.1,13.7c7.9,0.2,16.3-4,22.7-5
	c9.7-1.5,16.9,1.5,22.2,8.1C484.8,398.7,464.3,442.9,464.3,467.7z"/>
<path id="_x39_1777001" class="st0" d="M267.4,486.9c0,0-6.9,47.6-4.9,54.6s5.3,15.3-3,33.3c-4.8,17.8-6.4,39.5-7.3,54.3
	c-1.7,12.3-4.2,27.8-5.7,33.5c-0.8,6.8,53.5,0.1,58.3-113.2C297.9,542.3,276.3,528.8,267.4,486.9z"/>
<path id="_xA0_91776005" class="st0" d="M462.8,487.6c0,0,6.2,46.9,4.2,53.9s-5.3,15.3,3,33.3c4.8,17.8,6.4,39.5,7.3,54.3
	c1.7,12.3,4.2,27.8,5.7,33.5c0.8,6.8-53.5,0.1-58.3-113.2C431.5,542.3,453.8,529.5,462.8,487.6z"/>
<path id="_x32_29765004" class="st0" d="M304.8,549.3c0,0-2.4,32.8-5.2,44.3c129.5,1.5,130.6,2,130.6,2s-3.9-19.7-5.6-46.3
	C411.9,557.9,363.9,592,304.8,549.3z"/>
<path id="_x33_60988004" class="st0" d="M299.6,593.6c0,0-6.2,29.4,56.8,107.9c0,0,8.9-8.3,18.3,1.4c18.8-13.7,52.3-57.9,55.5-107.3
	C389.7,595.4,364,594.6,299.6,593.6z"/>
<path id="_x32_09570001" class="st0" d="M374.7,702.9c0,0,47.5-33.6,55.5-107.3c4.4,19,11.2,36,21.8,50.5c9.4,13,27.5,23,30.9,16.5
	C497,737.2,502,764.3,503.7,795c-0.7,19.3-1,41.3-5.3,59.7C495,866.3,481,889,480,898.3c-2.5,0-28.8,2.2-43.5,20.2
	c-10.6,13-32.4,10.7-37.5,6.8c0,0-8-28.6-8.3-33.1s-6.8-56.8-9.5-73s-6.8-53.8-6.5-76C376.5,727.3,377.4,708.6,374.7,702.9z"/>
<path id="_x32_09672000" class="st0" d="M356.4,701.5c0,0-9-11.3-20.8-27.5c-13.3-19.7-30.8-43-36.5-78.4c-4.4,19-11.2,36-21.8,50.5
	c-9.4,13-27.5,23-30.9,16.5c-14.1,74.7-19.1,101.8-20.7,132.5c0.7,19.3,1,41.3,5.3,59.7c3.3,11.7,17.3,34.3,18.3,43.7
	c2.5,0,28.8,2.2,43.5,20.2c10.6,13,32.4,10.7,37.5,6.8c0,0,6.7-29,6.9-33.5s8.1-56.3,10.8-72.6s6.8-53.8,6.5-76
	C352.9,727.3,352,706.3,356.4,701.5z"/>
<path id="_x32_10562007" class="st0" d="M406.3,966.7c0,0,12.2,25.5,32.8,22.2c20.7-3.3,33.8-22,36.2-36c0.3-13.2,2.3-46.6,4.7-54.5
	c-4,0.5-32,3.1-43.9,20.7c-0.2,0.4-0.6,0.6-0.9,0.9c-13.7,13.7-33.2,6.9-36.2,5.4c0,0,2.4,8.7,2,12.4
	C401.3,941.5,401.3,960.1,406.3,966.7z"/>
<path id="_x32_10659002" class="st0" d="M323.1,966.7c0,0-12.2,25.5-32.8,22.2c-20.7-3.3-33.8-22-36.2-36
	c-0.3-13.2-2.3-46.6-4.7-54.5c4,0.5,32,3.1,43.9,20.7c0.2,0.4,0.6,0.6,0.9,0.9c13.7,13.7,33.2,6.9,36.2,5.4c0,0-2.4,8.7-2,12.4
	C328.2,941.5,325.5,957.8,323.1,966.7z"/>
<path id="_x33_62784000" class="st0" d="M407,967.9c0,0-8.2,52.9-8,63.6c-1,10.3-0.8,30.8,4,39.3c2.5,8.8,8.5,20.8,8.5,23.5
	c0.5,4.3,4.2,47.9,6,52.9s6.3,38.2,5.2,47.7c6.8-2.8,28.3-14.2,43.3,5.2l2.8-61.5c0,0,2.8-34.3,4.3-38.8s6.8-51.5,7-66.3
	c-0.8-15-3.8-42.3-4.5-50.3c0-9-1.2-25.7-0.8-27.6c-3.1,8.2-10.5,29.5-37.6,33.5C428.1,989.1,418.6,987,407,967.9z"/>
<path id="_x32_41699003" class="st0" d="M422.7,1194.8c0,0-5.7,17.1-3.7,28.5c0.2,3.9,0.4,4.8-1,13.3c7.2-2.5,38.2-13.2,48-4.5V1200
	C466,1200,452.6,1179.3,422.7,1194.8z"/>
<path id="_x32_39830003" class="st0" d="M418,1236.6c0,0-8.7,26.9,15.3,38.2c1.3,2,4.5,11,5.7,21.8c1.3,8.3,2.7,19,10.8,23.2
	c1.5,2.5,6,13.2,18.8,14.5c4.5-0.3,8.3-1.5,10.2-6c0,0,9,5.4,12.6-3c2,0.5,6.8,1.2,8-4.4c1.9-0.9,3.6-0.6,3.7-2.6s4.8,6,5.1-8.3
	c-1.1-6-3-17.8-14.7-31.3c-6.2-6.5-25.7-32.1-27.5-46.7C459.4,1228.3,451.5,1225.2,418,1236.6z"/>
<path id="Right_Great_Toe" class="st0" d="M465.5,1299c0,0,7.2,12.7,8,13.8c0.8,1.2,9.8,10,4.8,16.6c-1.4,1.9-2.6,4.9-8.8,4.9
	s-15.3-5-19.7-14.5C446.3,1308.7,449.9,1289,465.5,1299z"/>
<path id="Right_Foot_Toes" class="st0" d="M466.4,1298.6c0,0,5.6-5.6,11.9-2.4c2.3,0,5.6-3.8,10,0.7c1.4-1.4,3.1-4,8-0.2
	c1.1-2,3.6-6.6,7.5-2c3.3,4.7,4.7,13.8,4.4,16.5s0.6,9.8-4.8,6.9c-0.4,0.4-0.5,2.2-3.9,2.9c-0.3,1-1.2,5.8-8,4.4
	c-0.5,1-3.9,8-12.5,3c0.8-2.8,2.3-6.7-5.5-15.6c-2.6-4.4-8-13.8-8-13.8L466.4,1298.6z"/>
<path id="_x33_62785004" class="st0" d="M321.8,967.9c0,0,8.2,52.9,8,63.6c1,10.3,0.8,30.8-4,39.3c-2.5,8.8-8.5,20.8-8.5,23.5
	c-0.5,4.3-4.2,47.9-6,52.9c-1.8,5-6.3,38.2-5.2,47.7c-6.8-2.8-27.9-14.2-42.9,5.2c0.6-22-1.7-41.5-3.2-61.5c0,0-2.8-34.3-4.2-38.8
	c-1.5-4.5-6.8-51.5-7-66.3c0.8-15,3.8-42.3,4.5-50.3c0-9,1.2-25.7,0.8-27.6c3.1,8.2,10.5,29.5,37.6,33.5
	C300.6,989.1,310.1,987,321.8,967.9z"/>
<path id="_x32_41784008" class="st0" d="M306.5,1194.4c0,0,5.7,17.1,3.7,28.5c-0.2,3.9-0.4,4.8,1,13.3c-7.2-2.5-38.2-13.2-48-4.5
	v-32.1C263.2,1199.6,276.5,1178.8,306.5,1194.4z"/>
<path id="_x32_39919000" class="st0" d="M311.2,1236.6c0,0,7.5,24.7-14.5,38.3c-1.3,2-4.1,13-5.3,23.8c-1.3,8.3-2.4,16.9-10.5,21.1
	c-1.5,2.5-6,13.2-18.8,14.5c-4.5-0.3-8.3-1.5-10.2-6c0,0-9,5.4-12.6-3c-2,0.5-6.8,1.2-8-4.4c-1.9-0.9-3.6-0.6-3.7-2.6
	s-4.8,6-5.1-8.3c1.1-6,0-17.4,13.9-30.4c6.2-6.5,24.4-33,26.3-47.6C269.4,1228.3,277.7,1225.2,311.2,1236.6z"/>
<path id="Left_Great_Toe" class="st0" d="M265.2,1299c0,0-7.2,12.7-8,13.8c-0.8,1.2-9.8,10-4.8,16.6c1.4,1.9,2.6,4.9,8.8,4.9
	c6.2,0,15.3-5,19.7-14.5C284.4,1308.7,280.9,1289,265.2,1299z"/>
<path id="Left_Foot_Toes" class="st0" d="M264.4,1298.6c0,0-5.6-5.6-11.9-2.4c-2.3,0-5.6-3.8-10,0.7c-1.4-1.4-3.1-4-8-0.2
	c-1.1-2-3.6-6.6-7.5-2c-4,3.8-4.7,13.8-4.4,16.5s-0.6,9.8,4.8,6.9c0.4,0.4,0.5,2.2,3.9,2.9c0.3,1,1.2,5.8,8,4.4c0.5,1,3.9,8,12.5,3
	c-0.8-2.8-2.3-6.7,5.5-15.6c2.6-4.4,8-13.8,8-13.8L264.4,1298.6z"/>
<path id="_x34_21814002" class="st0" d="M365,119.4c0,2.7-2.3,4.8-5.1,4.8c-2.8,0-5.1-2.2-5.1-4.8s2.3-4.8,5.1-4.8
	C362.8,114.6,365,116.8,365,119.4z"/>
<path id="_x34_21652004" class="st0" d="M377.3,119.4c0,2.7-2.3,4.8-5.1,4.8s-5.1-2.2-5.1-4.8s2.3-4.8,5.1-4.8
	S377.3,116.8,377.3,119.4z"/>
<path id="_x33_02550007" class="st0" d="M330.9,176.1c0,0,17.9,49.2,26.6,57.7c2.5,3.1,6.7,4.7,10.3,3.2c2.5-1,4.8-4.4,5.9-6.9
	l22.1-52.1c0,0-4.5,4.5-14.2,8.3C368.8,191.4,344.6,189.8,330.9,176.1z"/>
<path id="_x34_23713007" class="st0" d="M364.6,364.2L365,570c0,0-12,1-28.2-4.1c-24.9-7.8-59-28.7-69.4-79c0,0-1.6-10.9-1.7-16.6
	c-0.1-5.4-1.2-16.8-5.3-33.3c-3.7-14.9-10.3-37.1-7.4-53.4c2.3-6.6,4.7-18.9,22-12.4c11.8,4,21.1,9.9,41.3,6.1
	C330.4,374.8,359.5,364.2,364.6,364.2z"/>
<path id="_x34_15994006" class="st0" d="M364.8,364.2L364.5,570c0,0,11.8,0.4,28.2-4.1c27.2-7.4,64.6-35.9,69.4-79
	c0,0,1.6-10.9,1.7-16.6c0.1-5.4,1.2-16.8,5.3-33.3c3.7-14.9,8.2-32.1,5.3-48.4c-2.3-6.6-7.6-18.9-27.6-15.3
	c-7.7,2.9-19.9,5.8-33,3.2C398.1,373.4,376,363,364.8,364.2z"/>
<path id="Left_abdomen_3_" class="st0" d="M265.1,462.3L365,464l-0.2-99.8c0,0-10.7,2.9-24,6.5c-11.1,3-24,6.6-32.8,7.6
	c0,0-11.9,2-31.1-6.6c-5.1-1.7-15.9-6.9-21.9,5.8c-2,6-5.6,14.3,0.2,38.1C258.8,430,264.7,451.4,265.1,462.3z"/>
<path id="Right_abdomen_3_" class="st0" d="M464.3,462.3l-99.9,1.7l0.2-99.8c0,0,8.7-0.1,22,4.3c10.9,3.6,26.1,9.1,36.7,9.2
	c0,0,4.5,2,22.2-4.3c5.1-1.7,19.2-1.4,25.2,7.7c2.6,4.5,7.6,8.8,3.5,34.6C470.7,430,464.7,451.4,464.3,462.3z"/>
<path id="Left_abdomen_2_" class="st0" d="M364.8,464l0.2,106c0,0-12,1-28.2-4.1c-24.9-7.8-59-28.7-69.4-79c0,0-1.6-10.9-1.7-16.6
	c0-1.9-0.2-4.6-0.6-7.9C290.1,462.7,364.8,464,364.8,464z"/>
<path id="_xA0_265800007_1_" class="st0" d="M373.3,523.5c0,4.3-3.5,7.8-7.8,7.8s-7.8-3.5-7.8-7.8s3.5-7.8,7.8-7.8
	S373.3,519.2,373.3,523.5z"/>
<path id="Right_abdomen_2_" class="st0" d="M364.7,464l-0.2,106c0,0,11.8,0.4,28.2-4.1c27.2-7.4,64.6-35.9,69.4-79
	c0,0,1.6-10.9,1.7-16.6c0-1.9,0.2-4.6,0.6-7.9C449.3,462.3,364.7,464,364.7,464z"/>
<path id="_x33_67720001" class="st0" d="M366.7,691.4c0,7-4.3,12.6-9.5,12.6s-9.5-5.7-9.5-12.6c0-7,4.3-12.6,9.5-12.6
	S366.7,684.4,366.7,691.4z"/>
<path id="_x33_67719007" class="st0" d="M385.7,691.4c0,7-4.3,12.6-9.5,12.6c-5.2,0-9.5-5.7-9.5-12.6c0-7,4.3-12.6,9.5-12.6
	C381.4,678.8,385.7,684.4,385.7,691.4z"/>
<path id="_x32_29765004_1_" class="st2" d="M344.8,654.5c0,0,9.5,14.9,9.1,22.3c0,5.2,1.7,22.9,1.7,25.6c0.2,2.9,2.9,13.5,5.8,15.7
	c3.9,1.8,6.7,2.1,9.1-1.7c2.4-3.8,4.5-8.5,5-12.4c0.4-3.9,3.1-26.5,3.3-28.1c0.5-4.2,2.1-14.2,6.6-23.1c4.9-9.7-35.3-15.7-40.6,1.1
	C344.7,654.3,344.8,654.4,344.8,654.5z"/>
<path id="_x31_81424008" class="st3" d="M373.1,704c-0.4,3.9-2.6,8.6-5,12.4c-2.4,3.8-5.1,3.5-9.1,1.7c-2.8-2.2-5.6-12.8-5.8-15.7
	C354.8,697.1,373.7,698.2,373.1,704z"/>
</svg>
